<svg width="61" height="46" viewBox="0 0 61 46" fill="none" xmlns="http://www.w3.org/2000/svg">
<path d="M4.48434 30.2144C2.24156 30.2144 0.486772 28.2288 0.812098 26.006C2.05425 17.426 6.1849 10.3872 13.7315 5.3934C24.2208 -1.55155 35.2276 -1.76889 46.057 4.62283C54.7718 9.76981 59.1835 18.3893 60.1594 25.9813C60.4453 28.2189 58.7398 30.2046 56.4921 30.2046H56.4428C54.5845 30.2046 53.0368 28.8166 52.7706 26.9741C51.8488 20.5379 48.5956 15.3366 42.996 11.4542C38.8752 8.59914 34.2024 7.31487 29.214 7.631C19.4099 8.25338 10.0592 15.1835 8.14179 27.0581C7.85097 28.866 6.31306 30.2095 4.48434 30.2095V30.2144Z" fill="#1C8380"/>
<path d="M14.8456 30.1802C14.8456 21.541 21.7119 14.5318 30.4711 14.5318C39.3683 14.5318 45.6973 21.62 46.0917 29.3405C46.5698 38.7404 39.176 45.6458 31.0675 45.9175C21.9091 46.2237 14.7174 38.7799 14.8456 30.1802V30.1802ZM38.6388 30.2444C38.8458 26.0458 35.3116 21.946 30.4514 21.9658C25.7588 21.9855 22.2147 25.784 22.2887 30.279C22.3626 34.8381 25.9412 38.4835 30.4908 38.4786C35.0207 38.4786 38.6437 34.8184 38.6388 30.2444Z" fill="#36ABA7"/>
</svg>
