<svg width="52" height="52" viewBox="0 0 52 52" fill="none" xmlns="http://www.w3.org/2000/svg">
<rect x="0.25" width="51.5" height="51.5" rx="16.5" fill="#FFEEE1"/>
<path d="M37.4583 22.1693C37.4583 26.52 33.9314 30.0468 29.5807 30.0468C29.0785 30.0468 28.5875 29.9993 28.1114 29.9095L27.0366 31.1186C26.9358 31.232 26.8122 31.3227 26.6738 31.3849C26.5354 31.447 26.3854 31.4791 26.2337 31.4791H24.5677V33.2695C24.5677 33.8628 24.0867 34.3437 23.4934 34.3437H21.7031V36.1341C21.7031 36.7274 21.2221 37.2083 20.6289 37.2083H15.6158C15.0226 37.2083 14.5416 36.7274 14.5416 36.1341V32.6402C14.5416 32.3553 14.6548 32.0821 14.8562 31.8806L22.0984 24.6385C21.8422 23.8618 21.7031 23.0318 21.7031 22.1692C21.7031 17.8186 25.23 14.2917 29.5806 14.2916C33.9442 14.2916 37.4583 17.8057 37.4583 22.1693ZM29.5807 20.0208C29.5807 21.2074 30.5426 22.1692 31.7291 22.1692C32.9157 22.1692 33.8776 21.2074 33.8776 20.0208C33.8776 18.8342 32.9157 17.8724 31.7291 17.8724C30.5426 17.8724 29.5807 18.8342 29.5807 20.0208Z" fill="#CC7F26"/>
</svg>
