<svg width="52" height="52" viewBox="0 0 52 52" fill="none" xmlns="http://www.w3.org/2000/svg">
<rect x="0.25" width="51.5" height="51.5" rx="16.5" fill="#EAFBFA"/>
<path d="M36.3836 29.2604L30.2995 25.75L36.3836 22.2395C36.7264 22.0417 36.8437 21.6039 36.6459 21.2611L35.2127 18.7801C35.0148 18.4377 34.5766 18.3199 34.2338 18.5178L28.1497 22.0282V15.0078C28.1497 14.6121 27.8288 14.2916 27.4331 14.2916H24.5667C24.171 14.2916 23.8501 14.6121 23.8501 15.0078V22.0287L17.766 18.5182C17.4232 18.3204 16.985 18.4381 16.7871 18.7805L15.3539 21.2611C15.1561 21.6035 15.2734 22.0417 15.6162 22.2395L21.7003 25.75L15.6162 29.2604C15.2734 29.4583 15.1561 29.8964 15.3539 30.2389L16.7871 32.7198C16.985 33.0623 17.4232 33.1795 17.766 32.9821L23.8501 29.4717V36.4921C23.8501 36.8878 24.171 37.2083 24.5667 37.2083H27.4331C27.8288 37.2083 28.1497 36.8878 28.1497 36.4921V29.4712L34.2338 32.9817C34.5766 33.1795 35.0148 33.0623 35.2127 32.7194L36.6459 30.2384C36.8437 29.896 36.7264 29.4583 36.3836 29.2604Z" fill="#008582"/>
</svg>
