<svg width="52" height="52" viewBox="0 0 52 52" fill="none" xmlns="http://www.w3.org/2000/svg">
<rect x="0.25" width="51.5" height="51.5" rx="16.5" fill="#EBFAFF"/>
<path d="M37.4582 35.0599C37.4582 36.2464 36.4963 37.2083 35.3097 37.2083H16.6899C15.5034 37.2083 14.5415 36.2464 14.5415 35.0599V23.2759C14.5415 22.9501 14.6156 22.6286 14.7582 22.3356C14.9008 22.0427 15.1081 21.786 15.3645 21.585C16.4796 20.7109 17.4011 20.0021 22.7139 16.1463C23.467 15.5973 24.9613 14.2761 25.9998 14.2918C27.0382 14.2759 28.533 15.5975 29.2857 16.1463C34.5981 20.0017 35.5208 20.7115 36.6352 21.585C36.8916 21.786 37.0989 22.0427 37.2415 22.3356C37.3841 22.6286 37.4582 22.9501 37.4582 23.2759V35.0599ZM34.519 26.26C34.4043 26.0931 34.1744 26.0543 34.0115 26.1746C32.989 26.9299 31.5291 27.9966 29.2857 29.6246C28.5327 30.1736 27.0384 31.4947 25.9998 31.479C24.9609 31.4944 23.4683 30.1746 22.7139 29.6246C20.4709 27.9967 19.0108 26.9299 17.9882 26.1746C17.8253 26.0543 17.5954 26.0931 17.4807 26.26L17.0746 26.8506C17.022 26.9271 17.0011 27.0211 17.0165 27.1127C17.0318 27.2043 17.0822 27.2863 17.1569 27.3415C18.1813 28.0979 19.639 29.1628 21.8702 30.782C22.7776 31.4436 24.4001 32.9221 25.9998 32.9114C27.5988 32.9222 29.2207 31.4446 30.1294 30.782C32.3607 29.1627 33.8184 28.0978 34.8427 27.3415C34.9174 27.2863 34.9678 27.2043 34.9831 27.1127C34.9985 27.0211 34.9777 26.9271 34.925 26.8506L34.519 26.26Z" fill="#009EBB"/>
</svg>
