<svg width="52" height="52" viewBox="0 0 52 52" fill="none" xmlns="http://www.w3.org/2000/svg">
<rect x="0.25" width="51.5" height="51.5" rx="16.5" fill="#E1FFE8"/>
<path d="M36.3125 25.75C36.3125 24.2313 35.3578 22.9342 34.0123 22.4307C34.6045 21.1255 34.3668 19.5343 33.2913 18.4587C32.2157 17.3832 30.6245 17.1455 29.3193 17.7377C28.8158 16.3922 27.5187 15.4375 26 15.4375C24.4813 15.4375 23.1842 16.3922 22.6807 17.7377C21.3755 17.1455 19.7803 17.3832 18.7087 18.4587C17.6332 19.5343 17.3955 21.1255 17.9877 22.4307C16.6422 22.9342 15.6875 24.2313 15.6875 25.75C15.6875 27.2687 16.6422 28.5658 17.9877 29.0693C17.3955 30.3745 17.6332 31.9697 18.7087 33.0413C19.7803 34.1128 21.3715 34.3585 22.6807 33.7623C23.1842 35.1038 24.4813 36.0625 26 36.0625C27.5187 36.0625 28.8158 35.1078 29.3193 33.7623C30.6326 34.3585 32.2197 34.1128 33.2913 33.0413C34.3668 31.9657 34.6045 30.3745 34.0123 29.0693C35.3578 28.5658 36.3125 27.2687 36.3125 25.75Z" fill="#26CC37"/>
<path d="M30.5009 23.9675L25.2222 29.2039C25.0486 29.3763 24.7678 29.3751 24.5958 29.2015L21.5455 26.1267C21.3731 25.953 21.3743 25.6723 21.548 25.4999L22.5965 24.4597C22.7702 24.2873 23.0509 24.2885 23.2233 24.4622L24.9213 26.1738L28.8368 22.2897C29.0104 22.1173 29.2912 22.1185 29.4632 22.2921L30.5033 23.3407C30.6757 23.5147 30.6749 23.7955 30.5009 23.9675Z" fill="white"/>
</svg>
