<svg width="40" height="41" viewBox="0 0 40 41" fill="none" xmlns="http://www.w3.org/2000/svg">
<path d="M16.6665 20.7796C18.2785 20.7796 19.5832 19.4749 19.5832 17.863C19.5832 16.251 18.2785 14.9463 16.6665 14.9463C15.0545 14.9463 13.7498 16.251 13.7498 17.863C13.7498 19.4749 15.0545 20.7796 16.6665 20.7796ZM18.6665 21.613H18.4504C17.9087 21.8734 17.3071 22.0296 16.6665 22.0296C16.0259 22.0296 15.4269 21.8734 14.8826 21.613H14.6665C13.0103 21.613 11.6665 22.9567 11.6665 24.613V25.363C11.6665 26.0531 12.2264 26.613 12.9165 26.613H20.4165C21.1066 26.613 21.6665 26.0531 21.6665 25.363V24.613C21.6665 22.9567 20.3228 21.613 18.6665 21.613ZM24.1665 20.7796C25.5467 20.7796 26.6665 19.6598 26.6665 18.2796C26.6665 16.8994 25.5467 15.7796 24.1665 15.7796C22.7863 15.7796 21.6665 16.8994 21.6665 18.2796C21.6665 19.6598 22.7863 20.7796 24.1665 20.7796ZM25.4165 21.613H25.3175C24.9556 21.738 24.5728 21.8213 24.1665 21.8213C23.7603 21.8213 23.3774 21.738 23.0155 21.613H22.9165C22.3853 21.613 21.8957 21.7666 21.466 22.014C22.1014 22.6989 22.4998 23.6077 22.4998 24.613V25.613C22.4998 25.6702 22.4868 25.7249 22.4842 25.7796H27.0832C27.7733 25.7796 28.3332 25.2197 28.3332 24.5296C28.3332 22.9176 27.0285 21.613 25.4165 21.613V21.613Z" fill="white"/>
</svg>
